<svg xmlns="http://www.w3.org/2000/svg" width="600" height="400" id="NATO Map Symbol">
  <path style="fill:none;stroke:#0000ff;stroke-width:10;stroke-linecap:butt;stroke-linejoin:miter;stroke-miterlimit:4" id="path2985" d="m 50,100 c 0,0 45,-47 90,-47 60,0 60,60 60,60 0,0 15,-60 60,-60 45,0 90,47 90,47 0,0 45,-47 90,-47 45,0 60,60 60,60"/>
  <path style="fill:none;stroke:#0000ff;stroke-width:10;stroke-linecap:butt;stroke-linejoin:miter;stroke-miterlimit:4" id="path2985" d="m 50,140 c 0,0 45,-47 90,-47 60,0 60,60 60,60 0,0 15,-60 60,-60 45,0 90,47 90,47 0,0 45,-47 90,-47 45,0 60,60 60,60"/>
</svg>