<svg xmlns:dc="http://purl.org/dc/elements/1.1/" xmlns:cc="http://creativecommons.org/ns#" xmlns:rdf="http://www.w3.org/1999/02/22-rdf-syntax-ns#" xmlns:svg="http://www.w3.org/2000/svg" xmlns="http://www.w3.org/2000/svg" id="NATO Map Symbol" height="400" width="600" version="1.1">
  <path style="color:#0000ff;display:inline;overflow:visible;visibility:visible;fill:none;stroke:#0000ff;stroke-width:10" d="m 215.40054,292.5 c -51.4861,0 -93.22383,-41.01389 -93.22383,-92.5 0,-51.4861 41.73773,-92.5 93.22383,-92.5 h 169.19892 c 51.4861,0 93.22383,41.0139 93.22383,92.5 0,51.48611 -41.73773,92.5 -93.22383,92.5 z" id="ARMOUR"/>
  <path id="ABN" d="m 184.38444,356.7218 c 0,0 34.41086,-31.99987 68.95575,-30.86118 39.3232,1.29621 46.49508,40.79953 46.49508,40.79953 0,0 6.23863,-39.4259 46.49509,-40.79953 40.25646,-1.37362 68.95575,30.86118 68.95575,30.86118" style="fill:none;stroke:#0000ff;stroke-width:10;stroke-linecap:butt;stroke-linejoin:miter;stroke-miterlimit:4;stroke-dasharray:none;stroke-opacity:1"/>
  <path id="Friendly Frame" d="M 5,5 H 595 V 395 H 5 Z" style="fill:none;stroke:#0000ff;stroke-width:10;stroke-linecap:round;stroke-linejoin:miter;stroke-miterlimit:4;stroke-dasharray:none;stroke-opacity:1"/>
</svg>